<?xml version="1.0" encoding="UTF-8" standalone="no"?>
<svg
   xmlns:dc="http://purl.org/dc/elements/1.1/"
   xmlns:cc="http://creativecommons.org/ns#"
   xmlns:rdf="http://www.w3.org/1999/02/22-rdf-syntax-ns#"
   xmlns:svg="http://www.w3.org/2000/svg"
   xmlns="http://www.w3.org/2000/svg"
   id="svg10"
   version="1.1"
   fill="none"
   viewBox="0 0 370 556"
   height="556"
   width="370">
  <metadata
     id="metadata16">
    <rdf:RDF>
      <cc:Work
         rdf:about="">
        <dc:format>image/svg+xml</dc:format>
        <dc:type
           rdf:resource="http://purl.org/dc/dcmitype/StillImage" />
        <dc:title></dc:title>
      </cc:Work>
    </rdf:RDF>
  </metadata>
  <defs
     id="defs14" />
  <rect
     id="rect2"
     fill="white"
     height="556"
     width="370" />
  <path
     id="path4"
     fill="#808080"
     d="M242.158 147.644C238.928 144.415 235.033 142.8 230.469 142.8H216.002L212.709 134.017C211.89 131.908 210.395 130.088 208.219 128.559C206.045 127.03 203.817 126.266 201.535 126.266H168.467C166.185 126.266 163.957 127.03 161.782 128.559C159.608 130.088 158.112 131.908 157.294 134.017L154 142.8H139.533C134.969 142.8 131.073 144.415 127.843 147.644C124.614 150.873 123 154.769 123 159.333V217.2C123 221.765 124.614 225.662 127.843 228.89C131.073 232.119 134.969 233.734 139.533 233.734H230.467C235.031 233.734 238.927 232.119 242.156 228.89C245.385 225.662 247 221.765 247 217.2V159.333C247.001 154.769 245.386 150.873 242.158 147.644ZM205.441 208.708C199.779 214.37 192.966 217.202 185 217.202C177.034 217.202 170.222 214.37 164.56 208.708C158.897 203.047 156.067 196.233 156.067 188.269C156.067 180.302 158.898 173.49 164.56 167.827C170.221 162.165 177.035 159.335 185 159.335C192.966 159.335 199.779 162.166 205.441 167.827C211.103 173.489 213.934 180.302 213.934 188.269C213.934 196.233 211.103 203.047 205.441 208.708Z" />
  <path
     id="path6"
     fill="#808080"
     d="M185 169.667C179.876 169.667 175.495 171.486 171.857 175.125C168.219 178.763 166.4 183.144 166.4 188.269C166.4 193.391 168.219 197.772 171.857 201.411C175.495 205.049 179.876 206.868 185 206.868C190.124 206.868 194.505 205.049 198.143 201.411C201.782 197.772 203.601 193.392 203.601 188.269C203.601 183.144 201.782 178.763 198.143 175.125C194.505 171.486 190.124 169.667 185 169.667Z" />
  <path
     id="path8"
     fill="#808080"
     d="M101.798 286.634C102.05 286.634 102.26 286.648 102.428 286.676C102.596 286.69 102.743 286.732 102.869 286.802C103.009 286.858 103.142 286.949 103.268 287.075C103.394 287.187 103.534 287.341 103.688 287.537L119.627 307.844C119.571 307.354 119.529 306.878 119.501 306.416C119.487 305.94 119.48 305.499 119.48 305.093V286.634H124.457V317H121.538C121.09 317 120.719 316.93 120.425 316.79C120.131 316.65 119.844 316.398 119.564 316.034L103.688 295.811C103.73 296.259 103.758 296.707 103.772 297.155C103.8 297.589 103.814 297.988 103.814 298.352V317H98.8365V286.634H101.798ZM139.487 295.118C141.097 295.118 142.553 295.377 143.855 295.895C145.171 296.413 146.291 297.148 147.215 298.1C148.139 299.052 148.853 300.214 149.357 301.586C149.861 302.958 150.113 304.491 150.113 306.185C150.113 307.893 149.861 309.433 149.357 310.805C148.853 312.177 148.139 313.346 147.215 314.312C146.291 315.278 145.171 316.02 143.855 316.538C142.553 317.056 141.097 317.315 139.487 317.315C137.877 317.315 136.414 317.056 135.098 316.538C133.782 316.02 132.655 315.278 131.717 314.312C130.793 313.346 130.072 312.177 129.554 310.805C129.05 309.433 128.798 307.893 128.798 306.185C128.798 304.491 129.05 302.958 129.554 301.586C130.072 300.214 130.793 299.052 131.717 298.1C132.655 297.148 133.782 296.413 135.098 295.895C136.414 295.377 137.877 295.118 139.487 295.118ZM139.487 313.325C141.279 313.325 142.602 312.723 143.456 311.519C144.324 310.315 144.758 308.551 144.758 306.227C144.758 303.903 144.324 302.132 143.456 300.914C142.602 299.696 141.279 299.087 139.487 299.087C137.667 299.087 136.323 299.703 135.455 300.935C134.587 302.153 134.153 303.917 134.153 306.227C134.153 308.537 134.587 310.301 135.455 311.519C136.323 312.723 137.667 313.325 139.487 313.325ZM168.938 317H163.268V286.634H168.938V317ZM175.488 317V295.454H178.659C179.331 295.454 179.772 295.769 179.982 296.399L180.318 297.995C180.696 297.575 181.088 297.19 181.494 296.84C181.914 296.49 182.355 296.189 182.817 295.937C183.293 295.685 183.797 295.489 184.329 295.349C184.875 295.195 185.47 295.118 186.114 295.118C187.472 295.118 188.585 295.489 189.453 296.231C190.335 296.959 190.993 297.932 191.427 299.15C191.763 298.436 192.183 297.827 192.687 297.323C193.191 296.805 193.744 296.385 194.346 296.063C194.948 295.741 195.585 295.503 196.257 295.349C196.943 295.195 197.629 295.118 198.315 295.118C199.505 295.118 200.562 295.3 201.486 295.664C202.41 296.028 203.187 296.56 203.817 297.26C204.447 297.96 204.923 298.814 205.245 299.822C205.581 300.83 205.749 301.985 205.749 303.287V317H200.562V303.287C200.562 301.915 200.261 300.886 199.659 300.2C199.057 299.5 198.175 299.15 197.013 299.15C196.481 299.15 195.984 299.241 195.522 299.423C195.074 299.605 194.675 299.871 194.325 300.221C193.989 300.557 193.723 300.984 193.527 301.502C193.331 302.02 193.233 302.615 193.233 303.287V317H188.025V303.287C188.025 301.845 187.731 300.795 187.143 300.137C186.569 299.479 185.715 299.15 184.581 299.15C183.839 299.15 183.139 299.339 182.481 299.717C181.837 300.081 181.235 300.585 180.675 301.229V317H175.488ZM227.727 317H225.396C224.906 317 224.521 316.93 224.241 316.79C223.961 316.636 223.751 316.335 223.611 315.887L223.149 314.354C222.603 314.844 222.064 315.278 221.532 315.656C221.014 316.02 220.475 316.328 219.915 316.58C219.355 316.832 218.76 317.021 218.13 317.147C217.5 317.273 216.8 317.336 216.03 317.336C215.12 317.336 214.28 317.217 213.51 316.979C212.74 316.727 212.075 316.356 211.515 315.866C210.969 315.376 210.542 314.767 210.234 314.039C209.926 313.311 209.772 312.464 209.772 311.498C209.772 310.686 209.982 309.888 210.402 309.104C210.836 308.306 211.55 307.592 212.544 306.962C213.538 306.318 214.861 305.786 216.513 305.366C218.165 304.946 220.216 304.708 222.666 304.652V303.392C222.666 301.95 222.358 300.886 221.742 300.2C221.14 299.5 220.258 299.15 219.096 299.15C218.256 299.15 217.556 299.248 216.996 299.444C216.436 299.64 215.946 299.864 215.526 300.116C215.12 300.354 214.742 300.571 214.392 300.767C214.042 300.963 213.657 301.061 213.237 301.061C212.887 301.061 212.586 300.97 212.334 300.788C212.082 300.606 211.879 300.382 211.725 300.116L210.78 298.457C213.258 296.189 216.247 295.055 219.747 295.055C221.007 295.055 222.127 295.265 223.107 295.685C224.101 296.091 224.941 296.665 225.627 297.407C226.313 298.135 226.831 299.01 227.181 300.032C227.545 301.054 227.727 302.174 227.727 303.392V317ZM217.647 313.766C218.179 313.766 218.669 313.717 219.117 313.619C219.565 313.521 219.985 313.374 220.377 313.178C220.783 312.982 221.168 312.744 221.532 312.464C221.91 312.17 222.288 311.827 222.666 311.435V307.802C221.154 307.872 219.887 308.005 218.865 308.201C217.857 308.383 217.045 308.621 216.429 308.915C215.813 309.209 215.372 309.552 215.106 309.944C214.854 310.336 214.728 310.763 214.728 311.225C214.728 312.135 214.994 312.786 215.526 313.178C216.072 313.57 216.779 313.766 217.647 313.766ZM240.283 295.076C241.207 295.076 242.075 295.174 242.887 295.37C243.699 295.552 244.441 295.825 245.113 296.189H251.308V298.121C251.308 298.443 251.224 298.695 251.056 298.877C250.888 299.059 250.601 299.185 250.195 299.255L248.263 299.612C248.403 299.976 248.508 300.361 248.578 300.767C248.662 301.173 248.704 301.6 248.704 302.048C248.704 303.112 248.487 304.078 248.053 304.946C247.633 305.8 247.045 306.528 246.289 307.13C245.547 307.732 244.658 308.201 243.622 308.537C242.6 308.859 241.487 309.02 240.283 309.02C239.471 309.02 238.68 308.943 237.91 308.789C237.238 309.195 236.902 309.65 236.902 310.154C236.902 310.588 237.098 310.91 237.49 311.12C237.896 311.316 238.421 311.456 239.065 311.54C239.723 311.624 240.465 311.68 241.291 311.708C242.117 311.722 242.964 311.764 243.832 311.834C244.7 311.904 245.547 312.03 246.373 312.212C247.199 312.38 247.934 312.653 248.578 313.031C249.236 313.409 249.761 313.927 250.153 314.585C250.559 315.229 250.762 316.062 250.762 317.084C250.762 318.036 250.524 318.96 250.048 319.856C249.586 320.752 248.907 321.55 248.011 322.25C247.129 322.95 246.044 323.51 244.756 323.93C243.468 324.364 241.998 324.581 240.346 324.581C238.708 324.581 237.287 324.42 236.083 324.098C234.879 323.79 233.878 323.37 233.08 322.838C232.296 322.32 231.708 321.718 231.316 321.032C230.924 320.346 230.728 319.632 230.728 318.89C230.728 317.882 231.036 317.035 231.652 316.349C232.268 315.663 233.122 315.117 234.214 314.711C233.682 314.417 233.255 314.025 232.933 313.535C232.611 313.045 232.45 312.408 232.45 311.624C232.45 311.302 232.506 310.973 232.618 310.637C232.73 310.287 232.898 309.944 233.122 309.608C233.36 309.272 233.654 308.957 234.004 308.663C234.354 308.355 234.767 308.082 235.243 307.844C234.151 307.256 233.29 306.472 232.66 305.492C232.044 304.512 231.736 303.364 231.736 302.048C231.736 300.984 231.946 300.025 232.366 299.171C232.8 298.303 233.395 297.568 234.151 296.966C234.921 296.35 235.824 295.881 236.86 295.559C237.91 295.237 239.051 295.076 240.283 295.076ZM245.974 317.966C245.974 317.546 245.848 317.203 245.596 316.937C245.344 316.671 245.001 316.468 244.567 316.328C244.133 316.174 243.622 316.062 243.034 315.992C242.46 315.922 241.844 315.873 241.186 315.845C240.542 315.803 239.87 315.768 239.17 315.74C238.484 315.698 237.819 315.635 237.175 315.551C236.587 315.873 236.111 316.258 235.747 316.706C235.397 317.14 235.222 317.644 235.222 318.218C235.222 318.596 235.313 318.946 235.495 319.268C235.691 319.604 235.992 319.891 236.398 320.129C236.818 320.367 237.357 320.549 238.015 320.675C238.673 320.815 239.478 320.885 240.43 320.885C241.396 320.885 242.229 320.808 242.929 320.654C243.629 320.514 244.203 320.311 244.651 320.045C245.113 319.793 245.449 319.485 245.659 319.121C245.869 318.771 245.974 318.386 245.974 317.966ZM240.283 305.702C240.927 305.702 241.487 305.618 241.963 305.45C242.439 305.268 242.831 305.023 243.139 304.715C243.461 304.407 243.699 304.036 243.853 303.602C244.021 303.168 244.105 302.692 244.105 302.174C244.105 301.11 243.783 300.27 243.139 299.654C242.509 299.024 241.557 298.709 240.283 298.709C239.009 298.709 238.05 299.024 237.406 299.654C236.776 300.27 236.461 301.11 236.461 302.174C236.461 302.678 236.538 303.147 236.692 303.581C236.86 304.015 237.098 304.393 237.406 304.715C237.728 305.023 238.127 305.268 238.603 305.45C239.093 305.618 239.653 305.702 240.283 305.702ZM263.47 295.118C264.828 295.118 266.074 295.335 267.208 295.769C268.356 296.203 269.343 296.84 270.169 297.68C270.995 298.506 271.639 299.528 272.101 300.746C272.563 301.95 272.794 303.329 272.794 304.883C272.794 305.275 272.773 305.604 272.731 305.87C272.703 306.122 272.64 306.325 272.542 306.479C272.458 306.619 272.339 306.724 272.185 306.794C272.031 306.85 271.835 306.878 271.597 306.878H258.283C258.437 309.09 259.032 310.714 260.068 311.75C261.104 312.786 262.476 313.304 264.184 313.304C265.024 313.304 265.745 313.206 266.347 313.01C266.963 312.814 267.495 312.597 267.943 312.359C268.405 312.121 268.804 311.904 269.14 311.708C269.49 311.512 269.826 311.414 270.148 311.414C270.358 311.414 270.54 311.456 270.694 311.54C270.848 311.624 270.981 311.743 271.093 311.897L272.605 313.787C272.031 314.459 271.387 315.026 270.673 315.488C269.959 315.936 269.21 316.3 268.426 316.58C267.656 316.846 266.865 317.035 266.053 317.147C265.255 317.259 264.478 317.315 263.722 317.315C262.224 317.315 260.831 317.07 259.543 316.58C258.255 316.076 257.135 315.341 256.183 314.375C255.231 313.395 254.482 312.191 253.936 310.763C253.39 309.321 253.117 307.655 253.117 305.765C253.117 304.295 253.355 302.916 253.831 301.628C254.307 300.326 254.986 299.199 255.868 298.247C256.764 297.281 257.849 296.518 259.123 295.958C260.411 295.398 261.86 295.118 263.47 295.118ZM263.575 298.835C262.063 298.835 260.88 299.262 260.026 300.116C259.172 300.97 258.626 302.181 258.388 303.749H268.132C268.132 303.077 268.041 302.447 267.859 301.859C267.677 301.257 267.397 300.732 267.019 300.284C266.641 299.836 266.165 299.486 265.591 299.234C265.017 298.968 264.345 298.835 263.575 298.835ZM127.332 379H122.964C122.474 379 122.068 378.881 121.746 378.643C121.438 378.391 121.214 378.083 121.074 377.719L118.806 371.524H106.227L103.959 377.719C103.847 378.041 103.623 378.335 103.287 378.601C102.965 378.867 102.566 379 102.09 379H97.7012L109.629 348.634H115.404L127.332 379ZM107.676 367.534H117.357L113.661 357.433C113.493 356.985 113.304 356.46 113.094 355.858C112.898 355.242 112.702 354.577 112.506 353.863C112.31 354.577 112.114 355.242 111.918 355.858C111.736 356.474 111.554 357.013 111.372 357.475L107.676 367.534ZM139.032 379H134.328L125.76 357.454H130.065C130.443 357.454 130.758 357.545 131.01 357.727C131.276 357.909 131.458 358.14 131.556 358.42L135.714 369.928C135.952 370.6 136.148 371.258 136.302 371.902C136.47 372.546 136.617 373.19 136.743 373.834C136.869 373.19 137.009 372.546 137.163 371.902C137.331 371.258 137.541 370.6 137.793 369.928L142.056 358.42C142.154 358.14 142.329 357.909 142.581 357.727C142.833 357.545 143.134 357.454 143.484 357.454H147.579L139.032 379ZM167.516 379H165.185C164.695 379 164.31 378.93 164.03 378.79C163.75 378.636 163.54 378.335 163.4 377.887L162.938 376.354C162.392 376.844 161.853 377.278 161.321 377.656C160.803 378.02 160.264 378.328 159.704 378.58C159.144 378.832 158.549 379.021 157.919 379.147C157.289 379.273 156.589 379.336 155.819 379.336C154.909 379.336 154.069 379.217 153.299 378.979C152.529 378.727 151.864 378.356 151.304 377.866C150.758 377.376 150.331 376.767 150.023 376.039C149.715 375.311 149.561 374.464 149.561 373.498C149.561 372.686 149.771 371.888 150.191 371.104C150.625 370.306 151.339 369.592 152.333 368.962C153.327 368.318 154.65 367.786 156.302 367.366C157.954 366.946 160.005 366.708 162.455 366.652V365.392C162.455 363.95 162.147 362.886 161.531 362.2C160.929 361.5 160.047 361.15 158.885 361.15C158.045 361.15 157.345 361.248 156.785 361.444C156.225 361.64 155.735 361.864 155.315 362.116C154.909 362.354 154.531 362.571 154.181 362.767C153.831 362.963 153.446 363.061 153.026 363.061C152.676 363.061 152.375 362.97 152.123 362.788C151.871 362.606 151.668 362.382 151.514 362.116L150.569 360.457C153.047 358.189 156.036 357.055 159.536 357.055C160.796 357.055 161.916 357.265 162.896 357.685C163.89 358.091 164.73 358.665 165.416 359.407C166.102 360.135 166.62 361.01 166.97 362.032C167.334 363.054 167.516 364.174 167.516 365.392V379ZM157.436 375.766C157.968 375.766 158.458 375.717 158.906 375.619C159.354 375.521 159.774 375.374 160.166 375.178C160.572 374.982 160.957 374.744 161.321 374.464C161.699 374.17 162.077 373.827 162.455 373.435V369.802C160.943 369.872 159.676 370.005 158.654 370.201C157.646 370.383 156.834 370.621 156.218 370.915C155.602 371.209 155.161 371.552 154.895 371.944C154.643 372.336 154.517 372.763 154.517 373.225C154.517 374.135 154.783 374.786 155.315 375.178C155.861 375.57 156.568 375.766 157.436 375.766ZM178.14 357.454V379H172.953V357.454H178.14ZM178.917 351.175C178.917 351.623 178.826 352.043 178.644 352.435C178.462 352.827 178.217 353.17 177.909 353.464C177.615 353.758 177.265 353.996 176.859 354.178C176.453 354.346 176.019 354.43 175.557 354.43C175.109 354.43 174.682 354.346 174.276 354.178C173.884 353.996 173.541 353.758 173.247 353.464C172.953 353.17 172.715 352.827 172.533 352.435C172.365 352.043 172.281 351.623 172.281 351.175C172.281 350.713 172.365 350.279 172.533 349.873C172.715 349.467 172.953 349.117 173.247 348.823C173.541 348.529 173.884 348.298 174.276 348.13C174.682 347.948 175.109 347.857 175.557 347.857C176.019 347.857 176.453 347.948 176.859 348.13C177.265 348.298 177.615 348.529 177.909 348.823C178.217 349.117 178.462 349.467 178.644 349.873C178.826 350.279 178.917 350.713 178.917 351.175ZM189.542 347.794V379H184.355V347.794H189.542ZM212.305 379H209.974C209.484 379 209.099 378.93 208.819 378.79C208.539 378.636 208.329 378.335 208.189 377.887L207.727 376.354C207.181 376.844 206.642 377.278 206.11 377.656C205.592 378.02 205.053 378.328 204.493 378.58C203.933 378.832 203.338 379.021 202.708 379.147C202.078 379.273 201.378 379.336 200.608 379.336C199.698 379.336 198.858 379.217 198.088 378.979C197.318 378.727 196.653 378.356 196.093 377.866C195.547 377.376 195.12 376.767 194.812 376.039C194.504 375.311 194.35 374.464 194.35 373.498C194.35 372.686 194.56 371.888 194.98 371.104C195.414 370.306 196.128 369.592 197.122 368.962C198.116 368.318 199.439 367.786 201.091 367.366C202.743 366.946 204.794 366.708 207.244 366.652V365.392C207.244 363.95 206.936 362.886 206.32 362.2C205.718 361.5 204.836 361.15 203.674 361.15C202.834 361.15 202.134 361.248 201.574 361.444C201.014 361.64 200.524 361.864 200.104 362.116C199.698 362.354 199.32 362.571 198.97 362.767C198.62 362.963 198.235 363.061 197.815 363.061C197.465 363.061 197.164 362.97 196.912 362.788C196.66 362.606 196.457 362.382 196.303 362.116L195.358 360.457C197.836 358.189 200.825 357.055 204.325 357.055C205.585 357.055 206.705 357.265 207.685 357.685C208.679 358.091 209.519 358.665 210.205 359.407C210.891 360.135 211.409 361.01 211.759 362.032C212.123 363.054 212.305 364.174 212.305 365.392V379ZM202.225 375.766C202.757 375.766 203.247 375.717 203.695 375.619C204.143 375.521 204.563 375.374 204.955 375.178C205.361 374.982 205.746 374.744 206.11 374.464C206.488 374.17 206.866 373.827 207.244 373.435V369.802C205.732 369.872 204.465 370.005 203.443 370.201C202.435 370.383 201.623 370.621 201.007 370.915C200.391 371.209 199.95 371.552 199.684 371.944C199.432 372.336 199.306 372.763 199.306 373.225C199.306 374.135 199.572 374.786 200.104 375.178C200.65 375.57 201.357 375.766 202.225 375.766ZM217.469 379V347.794H222.656V360.1C223.51 359.19 224.476 358.469 225.554 357.937C226.632 357.391 227.892 357.118 229.334 357.118C230.51 357.118 231.581 357.363 232.547 357.853C233.527 358.329 234.367 359.029 235.067 359.953C235.781 360.877 236.327 362.018 236.705 363.376C237.097 364.734 237.293 366.295 237.293 368.059C237.293 369.669 237.076 371.16 236.642 372.532C236.208 373.904 235.585 375.094 234.773 376.102C233.975 377.11 233.002 377.901 231.854 378.475C230.72 379.035 229.446 379.315 228.032 379.315C227.374 379.315 226.772 379.245 226.226 379.105C225.68 378.979 225.183 378.797 224.735 378.559C224.287 378.321 223.867 378.034 223.475 377.698C223.097 377.348 222.733 376.963 222.383 376.543L222.152 377.992C222.068 378.356 221.921 378.615 221.711 378.769C221.515 378.923 221.242 379 220.892 379H217.469ZM227.549 361.15C226.471 361.15 225.547 361.381 224.777 361.843C224.021 362.291 223.314 362.928 222.656 363.754V373.414C223.244 374.142 223.881 374.653 224.567 374.947C225.267 375.227 226.023 375.367 226.835 375.367C227.619 375.367 228.326 375.22 228.956 374.926C229.586 374.632 230.118 374.184 230.552 373.582C231 372.98 231.343 372.224 231.581 371.314C231.819 370.39 231.938 369.305 231.938 368.059C231.938 366.799 231.833 365.735 231.623 364.867C231.427 363.985 231.14 363.271 230.762 362.725C230.384 362.179 229.922 361.78 229.376 361.528C228.844 361.276 228.235 361.15 227.549 361.15ZM246.882 347.794V379H241.695V347.794H246.882ZM261.665 357.118C263.023 357.118 264.269 357.335 265.403 357.769C266.551 358.203 267.538 358.84 268.364 359.68C269.19 360.506 269.834 361.528 270.296 362.746C270.758 363.95 270.989 365.329 270.989 366.883C270.989 367.275 270.968 367.604 270.926 367.87C270.898 368.122 270.835 368.325 270.737 368.479C270.653 368.619 270.534 368.724 270.38 368.794C270.226 368.85 270.03 368.878 269.792 368.878H256.478C256.632 371.09 257.227 372.714 258.263 373.75C259.299 374.786 260.671 375.304 262.379 375.304C263.219 375.304 263.94 375.206 264.542 375.01C265.158 374.814 265.69 374.597 266.138 374.359C266.6 374.121 266.999 373.904 267.335 373.708C267.685 373.512 268.021 373.414 268.343 373.414C268.553 373.414 268.735 373.456 268.889 373.54C269.043 373.624 269.176 373.743 269.288 373.897L270.8 375.787C270.226 376.459 269.582 377.026 268.868 377.488C268.154 377.936 267.405 378.3 266.621 378.58C265.851 378.846 265.06 379.035 264.248 379.147C263.45 379.259 262.673 379.315 261.917 379.315C260.419 379.315 259.026 379.07 257.738 378.58C256.45 378.076 255.33 377.341 254.378 376.375C253.426 375.395 252.677 374.191 252.131 372.763C251.585 371.321 251.312 369.655 251.312 367.765C251.312 366.295 251.55 364.916 252.026 363.628C252.502 362.326 253.181 361.199 254.063 360.247C254.959 359.281 256.044 358.518 257.318 357.958C258.606 357.398 260.055 357.118 261.665 357.118ZM261.77 360.835C260.258 360.835 259.075 361.262 258.221 362.116C257.367 362.97 256.821 364.181 256.583 365.749H266.327C266.327 365.077 266.236 364.447 266.054 363.859C265.872 363.257 265.592 362.732 265.214 362.284C264.836 361.836 264.36 361.486 263.786 361.234C263.212 360.968 262.54 360.835 261.77 360.835Z" />
</svg>
