<?xml version="1.0" encoding="UTF-8" standalone="no"?>
<svg
   xmlns:dc="http://purl.org/dc/elements/1.1/"
   xmlns:cc="http://creativecommons.org/ns#"
   xmlns:rdf="http://www.w3.org/1999/02/22-rdf-syntax-ns#"
   xmlns:svg="http://www.w3.org/2000/svg"
   xmlns="http://www.w3.org/2000/svg"
   style="fill:none"
   width="185"
   height="278"
   viewBox="0 0 185 278"
   version="1.1"
   id="svg10">
  <metadata
     id="metadata16">
    <rdf:RDF>
      <cc:Work
         rdf:about="">
        <dc:format>image/svg+xml</dc:format>
        <dc:type
           rdf:resource="http://purl.org/dc/dcmitype/StillImage" />
        <dc:title></dc:title>
      </cc:Work>
    </rdf:RDF>
  </metadata>
  <defs
     id="defs14" />
  <g
     transform="scale(0.5)"
     id="g823">
    <rect
       style="fill:#ffffff"
       y="0"
       x="0"
       id="rect2"
       height="556"
       width="370" />
    <path
       style="fill:#808080"
       id="path4"
       d="m 242.158,147.644 c -3.23,-3.229 -7.125,-4.844 -11.689,-4.844 h -14.467 l -3.293,-8.783 c -0.819,-2.109 -2.314,-3.929 -4.49,-5.458 -2.174,-1.529 -4.402,-2.293 -6.684,-2.293 h -33.068 c -2.282,0 -4.51,0.764 -6.685,2.293 -2.174,1.529 -3.67,3.349 -4.488,5.458 L 154,142.8 h -14.467 c -4.564,0 -8.46,1.615 -11.69,4.844 -3.229,3.229 -4.843,7.125 -4.843,11.689 V 217.2 c 0,4.565 1.614,8.462 4.843,11.69 3.23,3.229 7.126,4.844 11.69,4.844 h 90.934 c 4.564,0 8.46,-1.615 11.689,-4.844 3.229,-3.228 4.844,-7.125 4.844,-11.69 v -57.867 c 0.001,-4.564 -1.614,-8.46 -4.842,-11.689 z m -36.717,61.064 c -5.662,5.662 -12.475,8.494 -20.441,8.494 -7.966,0 -14.778,-2.832 -20.44,-8.494 -5.663,-5.661 -8.493,-12.475 -8.493,-20.439 0,-7.967 2.831,-14.779 8.493,-20.442 5.661,-5.662 12.475,-8.492 20.44,-8.492 7.966,0 14.779,2.831 20.441,8.492 5.662,5.662 8.493,12.475 8.493,20.442 0,7.964 -2.831,14.778 -8.493,20.439 z" />
    <path
       style="fill:#808080"
       id="path6"
       d="m 185,169.667 c -5.124,0 -9.505,1.819 -13.143,5.458 -3.638,3.638 -5.457,8.019 -5.457,13.144 0,5.122 1.819,9.503 5.457,13.142 3.638,3.638 8.019,5.457 13.143,5.457 5.124,0 9.505,-1.819 13.143,-5.457 3.639,-3.639 5.458,-8.019 5.458,-13.142 0,-5.125 -1.819,-9.506 -5.458,-13.144 -3.638,-3.639 -8.019,-5.458 -13.143,-5.458 z" />
    <path
       style="fill:#808080"
       id="path8"
       d="m 101.798,286.634 c 0.252,0 0.462,0.014 0.63,0.042 0.168,0.014 0.315,0.056 0.441,0.126 0.14,0.056 0.273,0.147 0.399,0.273 0.126,0.112 0.266,0.266 0.42,0.462 l 15.939,20.307 c -0.056,-0.49 -0.098,-0.966 -0.126,-1.428 -0.014,-0.476 -0.021,-0.917 -0.021,-1.323 v -18.459 h 4.977 V 317 h -2.919 c -0.448,0 -0.819,-0.07 -1.113,-0.21 -0.294,-0.14 -0.581,-0.392 -0.861,-0.756 l -15.876,-20.223 c 0.042,0.448 0.07,0.896 0.084,1.344 0.028,0.434 0.042,0.833 0.042,1.197 V 317 h -4.9775 v -30.366 z m 37.689,8.484 c 1.61,0 3.066,0.259 4.368,0.777 1.316,0.518 2.436,1.253 3.36,2.205 0.924,0.952 1.638,2.114 2.142,3.486 0.504,1.372 0.756,2.905 0.756,4.599 0,1.708 -0.252,3.248 -0.756,4.62 -0.504,1.372 -1.218,2.541 -2.142,3.507 -0.924,0.966 -2.044,1.708 -3.36,2.226 -1.302,0.518 -2.758,0.777 -4.368,0.777 -1.61,0 -3.073,-0.259 -4.389,-0.777 -1.316,-0.518 -2.443,-1.26 -3.381,-2.226 -0.924,-0.966 -1.645,-2.135 -2.163,-3.507 -0.504,-1.372 -0.756,-2.912 -0.756,-4.62 0,-1.694 0.252,-3.227 0.756,-4.599 0.518,-1.372 1.239,-2.534 2.163,-3.486 0.938,-0.952 2.065,-1.687 3.381,-2.205 1.316,-0.518 2.779,-0.777 4.389,-0.777 z m 0,18.207 c 1.792,0 3.115,-0.602 3.969,-1.806 0.868,-1.204 1.302,-2.968 1.302,-5.292 0,-2.324 -0.434,-4.095 -1.302,-5.313 -0.854,-1.218 -2.177,-1.827 -3.969,-1.827 -1.82,0 -3.164,0.616 -4.032,1.848 -0.868,1.218 -1.302,2.982 -1.302,5.292 0,2.31 0.434,4.074 1.302,5.292 0.868,1.204 2.212,1.806 4.032,1.806 z M 168.938,317 h -5.67 v -30.366 h 5.67 z m 6.55,0 v -21.546 h 3.171 c 0.672,0 1.113,0.315 1.323,0.945 l 0.336,1.596 c 0.378,-0.42 0.77,-0.805 1.176,-1.155 0.42,-0.35 0.861,-0.651 1.323,-0.903 0.476,-0.252 0.98,-0.448 1.512,-0.588 0.546,-0.154 1.141,-0.231 1.785,-0.231 1.358,0 2.471,0.371 3.339,1.113 0.882,0.728 1.54,1.701 1.974,2.919 0.336,-0.714 0.756,-1.323 1.26,-1.827 0.504,-0.518 1.057,-0.938 1.659,-1.26 0.602,-0.322 1.239,-0.56 1.911,-0.714 0.686,-0.154 1.372,-0.231 2.058,-0.231 1.19,0 2.247,0.182 3.171,0.546 0.924,0.364 1.701,0.896 2.331,1.596 0.63,0.7 1.106,1.554 1.428,2.562 0.336,1.008 0.504,2.163 0.504,3.465 V 317 h -5.187 v -13.713 c 0,-1.372 -0.301,-2.401 -0.903,-3.087 -0.602,-0.7 -1.484,-1.05 -2.646,-1.05 -0.532,0 -1.029,0.091 -1.491,0.273 -0.448,0.182 -0.847,0.448 -1.197,0.798 -0.336,0.336 -0.602,0.763 -0.798,1.281 -0.196,0.518 -0.294,1.113 -0.294,1.785 V 317 h -5.208 v -13.713 c 0,-1.442 -0.294,-2.492 -0.882,-3.15 -0.574,-0.658 -1.428,-0.987 -2.562,-0.987 -0.742,0 -1.442,0.189 -2.1,0.567 -0.644,0.364 -1.246,0.868 -1.806,1.512 V 317 Z m 52.239,0 h -2.331 c -0.49,0 -0.875,-0.07 -1.155,-0.21 -0.28,-0.154 -0.49,-0.455 -0.63,-0.903 l -0.462,-1.533 c -0.546,0.49 -1.085,0.924 -1.617,1.302 -0.518,0.364 -1.057,0.672 -1.617,0.924 -0.56,0.252 -1.155,0.441 -1.785,0.567 -0.63,0.126 -1.33,0.189 -2.1,0.189 -0.91,0 -1.75,-0.119 -2.52,-0.357 -0.77,-0.252 -1.435,-0.623 -1.995,-1.113 -0.546,-0.49 -0.973,-1.099 -1.281,-1.827 -0.308,-0.728 -0.462,-1.575 -0.462,-2.541 0,-0.812 0.21,-1.61 0.63,-2.394 0.434,-0.798 1.148,-1.512 2.142,-2.142 0.994,-0.644 2.317,-1.176 3.969,-1.596 1.652,-0.42 3.703,-0.658 6.153,-0.714 v -1.26 c 0,-1.442 -0.308,-2.506 -0.924,-3.192 -0.602,-0.7 -1.484,-1.05 -2.646,-1.05 -0.84,0 -1.54,0.098 -2.1,0.294 -0.56,0.196 -1.05,0.42 -1.47,0.672 -0.406,0.238 -0.784,0.455 -1.134,0.651 -0.35,0.196 -0.735,0.294 -1.155,0.294 -0.35,0 -0.651,-0.091 -0.903,-0.273 -0.252,-0.182 -0.455,-0.406 -0.609,-0.672 l -0.945,-1.659 c 2.478,-2.268 5.467,-3.402 8.967,-3.402 1.26,0 2.38,0.21 3.36,0.63 0.994,0.406 1.834,0.98 2.52,1.722 0.686,0.728 1.204,1.603 1.554,2.625 0.364,1.022 0.546,2.142 0.546,3.36 z m -10.08,-3.234 c 0.532,0 1.022,-0.049 1.47,-0.147 0.448,-0.098 0.868,-0.245 1.26,-0.441 0.406,-0.196 0.791,-0.434 1.155,-0.714 0.378,-0.294 0.756,-0.637 1.134,-1.029 v -3.633 c -1.512,0.07 -2.779,0.203 -3.801,0.399 -1.008,0.182 -1.82,0.42 -2.436,0.714 -0.616,0.294 -1.057,0.637 -1.323,1.029 -0.252,0.392 -0.378,0.819 -0.378,1.281 0,0.91 0.266,1.561 0.798,1.953 0.546,0.392 1.253,0.588 2.121,0.588 z m 22.636,-18.69 c 0.924,0 1.792,0.098 2.604,0.294 0.812,0.182 1.554,0.455 2.226,0.819 h 6.195 v 1.932 c 0,0.322 -0.084,0.574 -0.252,0.756 -0.168,0.182 -0.455,0.308 -0.861,0.378 l -1.932,0.357 c 0.14,0.364 0.245,0.749 0.315,1.155 0.084,0.406 0.126,0.833 0.126,1.281 0,1.064 -0.217,2.03 -0.651,2.898 -0.42,0.854 -1.008,1.582 -1.764,2.184 -0.742,0.602 -1.631,1.071 -2.667,1.407 -1.022,0.322 -2.135,0.483 -3.339,0.483 -0.812,0 -1.603,-0.077 -2.373,-0.231 -0.672,0.406 -1.008,0.861 -1.008,1.365 0,0.434 0.196,0.756 0.588,0.966 0.406,0.196 0.931,0.336 1.575,0.42 0.658,0.084 1.4,0.14 2.226,0.168 0.826,0.014 1.673,0.056 2.541,0.126 0.868,0.07 1.715,0.196 2.541,0.378 0.826,0.168 1.561,0.441 2.205,0.819 0.658,0.378 1.183,0.896 1.575,1.554 0.406,0.644 0.609,1.477 0.609,2.499 0,0.952 -0.238,1.876 -0.714,2.772 -0.462,0.896 -1.141,1.694 -2.037,2.394 -0.882,0.7 -1.967,1.26 -3.255,1.68 -1.288,0.434 -2.758,0.651 -4.41,0.651 -1.638,0 -3.059,-0.161 -4.263,-0.483 -1.204,-0.308 -2.205,-0.728 -3.003,-1.26 -0.784,-0.518 -1.372,-1.12 -1.764,-1.806 -0.392,-0.686 -0.588,-1.4 -0.588,-2.142 0,-1.008 0.308,-1.855 0.924,-2.541 0.616,-0.686 1.47,-1.232 2.562,-1.638 -0.532,-0.294 -0.959,-0.686 -1.281,-1.176 -0.322,-0.49 -0.483,-1.127 -0.483,-1.911 0,-0.322 0.056,-0.651 0.168,-0.987 0.112,-0.35 0.28,-0.693 0.504,-1.029 0.238,-0.336 0.532,-0.651 0.882,-0.945 0.35,-0.308 0.763,-0.581 1.239,-0.819 -1.092,-0.588 -1.953,-1.372 -2.583,-2.352 -0.616,-0.98 -0.924,-2.128 -0.924,-3.444 0,-1.064 0.21,-2.023 0.63,-2.877 0.434,-0.868 1.029,-1.603 1.785,-2.205 0.77,-0.616 1.673,-1.085 2.709,-1.407 1.05,-0.322 2.191,-0.483 3.423,-0.483 z m 5.691,22.89 c 0,-0.42 -0.126,-0.763 -0.378,-1.029 -0.252,-0.266 -0.595,-0.469 -1.029,-0.609 -0.434,-0.154 -0.945,-0.266 -1.533,-0.336 -0.574,-0.07 -1.19,-0.119 -1.848,-0.147 -0.644,-0.042 -1.316,-0.077 -2.016,-0.105 -0.686,-0.042 -1.351,-0.105 -1.995,-0.189 -0.588,0.322 -1.064,0.707 -1.428,1.155 -0.35,0.434 -0.525,0.938 -0.525,1.512 0,0.378 0.091,0.728 0.273,1.05 0.196,0.336 0.497,0.623 0.903,0.861 0.42,0.238 0.959,0.42 1.617,0.546 0.658,0.14 1.463,0.21 2.415,0.21 0.966,0 1.799,-0.077 2.499,-0.231 0.7,-0.14 1.274,-0.343 1.722,-0.609 0.462,-0.252 0.798,-0.56 1.008,-0.924 0.21,-0.35 0.315,-0.735 0.315,-1.155 z m -5.691,-12.264 c 0.644,0 1.204,-0.084 1.68,-0.252 0.476,-0.182 0.868,-0.427 1.176,-0.735 0.322,-0.308 0.56,-0.679 0.714,-1.113 0.168,-0.434 0.252,-0.91 0.252,-1.428 0,-1.064 -0.322,-1.904 -0.966,-2.52 -0.63,-0.63 -1.582,-0.945 -2.856,-0.945 -1.274,0 -2.233,0.315 -2.877,0.945 -0.63,0.616 -0.945,1.456 -0.945,2.52 0,0.504 0.077,0.973 0.231,1.407 0.168,0.434 0.406,0.812 0.714,1.134 0.322,0.308 0.721,0.553 1.197,0.735 0.49,0.168 1.05,0.252 1.68,0.252 z m 23.187,-10.584 c 1.358,0 2.604,0.217 3.738,0.651 1.148,0.434 2.135,1.071 2.961,1.911 0.826,0.826 1.47,1.848 1.932,3.066 0.462,1.204 0.693,2.583 0.693,4.137 0,0.392 -0.021,0.721 -0.063,0.987 -0.028,0.252 -0.091,0.455 -0.189,0.609 -0.084,0.14 -0.203,0.245 -0.357,0.315 -0.154,0.056 -0.35,0.084 -0.588,0.084 h -13.314 c 0.154,2.212 0.749,3.836 1.785,4.872 1.036,1.036 2.408,1.554 4.116,1.554 0.84,0 1.561,-0.098 2.163,-0.294 0.616,-0.196 1.148,-0.413 1.596,-0.651 0.462,-0.238 0.861,-0.455 1.197,-0.651 0.35,-0.196 0.686,-0.294 1.008,-0.294 0.21,0 0.392,0.042 0.546,0.126 0.154,0.084 0.287,0.203 0.399,0.357 l 1.512,1.89 c -0.574,0.672 -1.218,1.239 -1.932,1.701 -0.714,0.448 -1.463,0.812 -2.247,1.092 -0.77,0.266 -1.561,0.455 -2.373,0.567 -0.798,0.112 -1.575,0.168 -2.331,0.168 -1.498,0 -2.891,-0.245 -4.179,-0.735 -1.288,-0.504 -2.408,-1.239 -3.36,-2.205 -0.952,-0.98 -1.701,-2.184 -2.247,-3.612 -0.546,-1.442 -0.819,-3.108 -0.819,-4.998 0,-1.47 0.238,-2.849 0.714,-4.137 0.476,-1.302 1.155,-2.429 2.037,-3.381 0.896,-0.966 1.981,-1.729 3.255,-2.289 1.288,-0.56 2.737,-0.84 4.347,-0.84 z m 0.105,3.717 c -1.512,0 -2.695,0.427 -3.549,1.281 -0.854,0.854 -1.4,2.065 -1.638,3.633 h 9.744 c 0,-0.672 -0.091,-1.302 -0.273,-1.89 -0.182,-0.602 -0.462,-1.127 -0.84,-1.575 -0.378,-0.448 -0.854,-0.798 -1.428,-1.05 -0.574,-0.266 -1.246,-0.399 -2.016,-0.399 z M 127.332,379 h -4.368 c -0.49,0 -0.896,-0.119 -1.218,-0.357 -0.308,-0.252 -0.532,-0.56 -0.672,-0.924 l -2.268,-6.195 h -12.579 l -2.268,6.195 c -0.112,0.322 -0.336,0.616 -0.672,0.882 -0.322,0.266 -0.721,0.399 -1.197,0.399 h -4.3888 l 11.9278,-30.366 h 5.775 z m -19.656,-11.466 h 9.681 l -3.696,-10.101 c -0.168,-0.448 -0.357,-0.973 -0.567,-1.575 -0.196,-0.616 -0.392,-1.281 -0.588,-1.995 -0.196,0.714 -0.392,1.379 -0.588,1.995 -0.182,0.616 -0.364,1.155 -0.546,1.617 z M 139.032,379 h -4.704 l -8.568,-21.546 h 4.305 c 0.378,0 0.693,0.091 0.945,0.273 0.266,0.182 0.448,0.413 0.546,0.693 l 4.158,11.508 c 0.238,0.672 0.434,1.33 0.588,1.974 0.168,0.644 0.315,1.288 0.441,1.932 0.126,-0.644 0.266,-1.288 0.42,-1.932 0.168,-0.644 0.378,-1.302 0.63,-1.974 l 4.263,-11.508 c 0.098,-0.28 0.273,-0.511 0.525,-0.693 0.252,-0.182 0.553,-0.273 0.903,-0.273 h 4.095 z m 28.484,0 h -2.331 c -0.49,0 -0.875,-0.07 -1.155,-0.21 -0.28,-0.154 -0.49,-0.455 -0.63,-0.903 l -0.462,-1.533 c -0.546,0.49 -1.085,0.924 -1.617,1.302 -0.518,0.364 -1.057,0.672 -1.617,0.924 -0.56,0.252 -1.155,0.441 -1.785,0.567 -0.63,0.126 -1.33,0.189 -2.1,0.189 -0.91,0 -1.75,-0.119 -2.52,-0.357 -0.77,-0.252 -1.435,-0.623 -1.995,-1.113 -0.546,-0.49 -0.973,-1.099 -1.281,-1.827 -0.308,-0.728 -0.462,-1.575 -0.462,-2.541 0,-0.812 0.21,-1.61 0.63,-2.394 0.434,-0.798 1.148,-1.512 2.142,-2.142 0.994,-0.644 2.317,-1.176 3.969,-1.596 1.652,-0.42 3.703,-0.658 6.153,-0.714 v -1.26 c 0,-1.442 -0.308,-2.506 -0.924,-3.192 -0.602,-0.7 -1.484,-1.05 -2.646,-1.05 -0.84,0 -1.54,0.098 -2.1,0.294 -0.56,0.196 -1.05,0.42 -1.47,0.672 -0.406,0.238 -0.784,0.455 -1.134,0.651 -0.35,0.196 -0.735,0.294 -1.155,0.294 -0.35,0 -0.651,-0.091 -0.903,-0.273 -0.252,-0.182 -0.455,-0.406 -0.609,-0.672 l -0.945,-1.659 c 2.478,-2.268 5.467,-3.402 8.967,-3.402 1.26,0 2.38,0.21 3.36,0.63 0.994,0.406 1.834,0.98 2.52,1.722 0.686,0.728 1.204,1.603 1.554,2.625 0.364,1.022 0.546,2.142 0.546,3.36 z m -10.08,-3.234 c 0.532,0 1.022,-0.049 1.47,-0.147 0.448,-0.098 0.868,-0.245 1.26,-0.441 0.406,-0.196 0.791,-0.434 1.155,-0.714 0.378,-0.294 0.756,-0.637 1.134,-1.029 v -3.633 c -1.512,0.07 -2.779,0.203 -3.801,0.399 -1.008,0.182 -1.82,0.42 -2.436,0.714 -0.616,0.294 -1.057,0.637 -1.323,1.029 -0.252,0.392 -0.378,0.819 -0.378,1.281 0,0.91 0.266,1.561 0.798,1.953 0.546,0.392 1.253,0.588 2.121,0.588 z M 178.14,357.454 V 379 h -5.187 v -21.546 z m 0.777,-6.279 c 0,0.448 -0.091,0.868 -0.273,1.26 -0.182,0.392 -0.427,0.735 -0.735,1.029 -0.294,0.294 -0.644,0.532 -1.05,0.714 -0.406,0.168 -0.84,0.252 -1.302,0.252 -0.448,0 -0.875,-0.084 -1.281,-0.252 -0.392,-0.182 -0.735,-0.42 -1.029,-0.714 -0.294,-0.294 -0.532,-0.637 -0.714,-1.029 -0.168,-0.392 -0.252,-0.812 -0.252,-1.26 0,-0.462 0.084,-0.896 0.252,-1.302 0.182,-0.406 0.42,-0.756 0.714,-1.05 0.294,-0.294 0.637,-0.525 1.029,-0.693 0.406,-0.182 0.833,-0.273 1.281,-0.273 0.462,0 0.896,0.091 1.302,0.273 0.406,0.168 0.756,0.399 1.05,0.693 0.308,0.294 0.553,0.644 0.735,1.05 0.182,0.406 0.273,0.84 0.273,1.302 z m 10.625,-3.381 V 379 h -5.187 V 347.794 Z M 212.305,379 h -2.331 c -0.49,0 -0.875,-0.07 -1.155,-0.21 -0.28,-0.154 -0.49,-0.455 -0.63,-0.903 l -0.462,-1.533 c -0.546,0.49 -1.085,0.924 -1.617,1.302 -0.518,0.364 -1.057,0.672 -1.617,0.924 -0.56,0.252 -1.155,0.441 -1.785,0.567 -0.63,0.126 -1.33,0.189 -2.1,0.189 -0.91,0 -1.75,-0.119 -2.52,-0.357 -0.77,-0.252 -1.435,-0.623 -1.995,-1.113 -0.546,-0.49 -0.973,-1.099 -1.281,-1.827 -0.308,-0.728 -0.462,-1.575 -0.462,-2.541 0,-0.812 0.21,-1.61 0.63,-2.394 0.434,-0.798 1.148,-1.512 2.142,-2.142 0.994,-0.644 2.317,-1.176 3.969,-1.596 1.652,-0.42 3.703,-0.658 6.153,-0.714 v -1.26 c 0,-1.442 -0.308,-2.506 -0.924,-3.192 -0.602,-0.7 -1.484,-1.05 -2.646,-1.05 -0.84,0 -1.54,0.098 -2.1,0.294 -0.56,0.196 -1.05,0.42 -1.47,0.672 -0.406,0.238 -0.784,0.455 -1.134,0.651 -0.35,0.196 -0.735,0.294 -1.155,0.294 -0.35,0 -0.651,-0.091 -0.903,-0.273 -0.252,-0.182 -0.455,-0.406 -0.609,-0.672 l -0.945,-1.659 c 2.478,-2.268 5.467,-3.402 8.967,-3.402 1.26,0 2.38,0.21 3.36,0.63 0.994,0.406 1.834,0.98 2.52,1.722 0.686,0.728 1.204,1.603 1.554,2.625 0.364,1.022 0.546,2.142 0.546,3.36 z m -10.08,-3.234 c 0.532,0 1.022,-0.049 1.47,-0.147 0.448,-0.098 0.868,-0.245 1.26,-0.441 0.406,-0.196 0.791,-0.434 1.155,-0.714 0.378,-0.294 0.756,-0.637 1.134,-1.029 v -3.633 c -1.512,0.07 -2.779,0.203 -3.801,0.399 -1.008,0.182 -1.82,0.42 -2.436,0.714 -0.616,0.294 -1.057,0.637 -1.323,1.029 -0.252,0.392 -0.378,0.819 -0.378,1.281 0,0.91 0.266,1.561 0.798,1.953 0.546,0.392 1.253,0.588 2.121,0.588 z M 217.469,379 v -31.206 h 5.187 V 360.1 c 0.854,-0.91 1.82,-1.631 2.898,-2.163 1.078,-0.546 2.338,-0.819 3.78,-0.819 1.176,0 2.247,0.245 3.213,0.735 0.98,0.476 1.82,1.176 2.52,2.1 0.714,0.924 1.26,2.065 1.638,3.423 0.392,1.358 0.588,2.919 0.588,4.683 0,1.61 -0.217,3.101 -0.651,4.473 -0.434,1.372 -1.057,2.562 -1.869,3.57 -0.798,1.008 -1.771,1.799 -2.919,2.373 -1.134,0.56 -2.408,0.84 -3.822,0.84 -0.658,0 -1.26,-0.07 -1.806,-0.21 -0.546,-0.126 -1.043,-0.308 -1.491,-0.546 -0.448,-0.238 -0.868,-0.525 -1.26,-0.861 -0.378,-0.35 -0.742,-0.735 -1.092,-1.155 l -0.231,1.449 c -0.084,0.364 -0.231,0.623 -0.441,0.777 -0.196,0.154 -0.469,0.231 -0.819,0.231 z m 10.08,-17.85 c -1.078,0 -2.002,0.231 -2.772,0.693 -0.756,0.448 -1.463,1.085 -2.121,1.911 v 9.66 c 0.588,0.728 1.225,1.239 1.911,1.533 0.7,0.28 1.456,0.42 2.268,0.42 0.784,0 1.491,-0.147 2.121,-0.441 0.63,-0.294 1.162,-0.742 1.596,-1.344 0.448,-0.602 0.791,-1.358 1.029,-2.268 0.238,-0.924 0.357,-2.009 0.357,-3.255 0,-1.26 -0.105,-2.324 -0.315,-3.192 -0.196,-0.882 -0.483,-1.596 -0.861,-2.142 -0.378,-0.546 -0.84,-0.945 -1.386,-1.197 -0.532,-0.252 -1.141,-0.378 -1.827,-0.378 z m 19.333,-13.356 V 379 h -5.187 v -31.206 z m 14.783,9.324 c 1.358,0 2.604,0.217 3.738,0.651 1.148,0.434 2.135,1.071 2.961,1.911 0.826,0.826 1.47,1.848 1.932,3.066 0.462,1.204 0.693,2.583 0.693,4.137 0,0.392 -0.021,0.721 -0.063,0.987 -0.028,0.252 -0.091,0.455 -0.189,0.609 -0.084,0.14 -0.203,0.245 -0.357,0.315 -0.154,0.056 -0.35,0.084 -0.588,0.084 h -13.314 c 0.154,2.212 0.749,3.836 1.785,4.872 1.036,1.036 2.408,1.554 4.116,1.554 0.84,0 1.561,-0.098 2.163,-0.294 0.616,-0.196 1.148,-0.413 1.596,-0.651 0.462,-0.238 0.861,-0.455 1.197,-0.651 0.35,-0.196 0.686,-0.294 1.008,-0.294 0.21,0 0.392,0.042 0.546,0.126 0.154,0.084 0.287,0.203 0.399,0.357 l 1.512,1.89 c -0.574,0.672 -1.218,1.239 -1.932,1.701 -0.714,0.448 -1.463,0.812 -2.247,1.092 -0.77,0.266 -1.561,0.455 -2.373,0.567 -0.798,0.112 -1.575,0.168 -2.331,0.168 -1.498,0 -2.891,-0.245 -4.179,-0.735 -1.288,-0.504 -2.408,-1.239 -3.36,-2.205 -0.952,-0.98 -1.701,-2.184 -2.247,-3.612 -0.546,-1.442 -0.819,-3.108 -0.819,-4.998 0,-1.47 0.238,-2.849 0.714,-4.137 0.476,-1.302 1.155,-2.429 2.037,-3.381 0.896,-0.966 1.981,-1.729 3.255,-2.289 1.288,-0.56 2.737,-0.84 4.347,-0.84 z m 0.105,3.717 c -1.512,0 -2.695,0.427 -3.549,1.281 -0.854,0.854 -1.4,2.065 -1.638,3.633 h 9.744 c 0,-0.672 -0.091,-1.302 -0.273,-1.89 -0.182,-0.602 -0.462,-1.127 -0.84,-1.575 -0.378,-0.448 -0.854,-0.798 -1.428,-1.05 -0.574,-0.266 -1.246,-0.399 -2.016,-0.399 z" />
  </g>
</svg>
