<?xml version="1.0" encoding="UTF-8" standalone="no"?>
<svg
   xmlns:dc="http://purl.org/dc/elements/1.1/"
   xmlns:cc="http://creativecommons.org/ns#"
   xmlns:rdf="http://www.w3.org/1999/02/22-rdf-syntax-ns#"
   xmlns:svg="http://www.w3.org/2000/svg"
   xmlns="http://www.w3.org/2000/svg"
   style="fill:none"
   id="svg10"
   version="1.1"
   viewBox="0 0 185.00009 105"
   height="105"
   width="185.00009">
  <metadata
     id="metadata16">
    <rdf:RDF>
      <cc:Work
         rdf:about="">
        <dc:format>image/svg+xml</dc:format>
        <dc:type
           rdf:resource="http://purl.org/dc/dcmitype/StillImage" />
        <dc:title></dc:title>
      </cc:Work>
    </rdf:RDF>
  </metadata>
  <defs
     id="defs14" />
  <g
     transform="scale(0.3)"
     id="g22">
    <rect
       style="fill:#ffffff"
       y="0"
       x="0"
       width="616.66699"
       height="350"
       id="rect2" />
    <path
       style="fill:#808080"
       d="M 354.095,113.906 C 351.491,111.302 348.349,110 344.668,110 h -11.666 l -2.656,-7.083 c -0.66,-1.701 -1.866,-3.1685 -3.621,-4.4017 -1.753,-1.2327 -3.55,-1.8494 -5.391,-1.8494 h -26.667 c -1.84,0 -3.637,0.6167 -5.391,1.8494 -1.754,1.2332 -2.96,2.7007 -3.62,4.4017 L 283,110 h -11.667 c -3.681,0 -6.823,1.302 -9.427,3.906 -2.604,2.604 -3.906,5.746 -3.906,9.427 V 170 c 0,3.681 1.302,6.824 3.906,9.427 2.604,2.605 5.746,3.907 9.427,3.907 h 73.334 c 3.681,0 6.822,-1.302 9.427,-3.907 C 356.698,176.824 358,173.681 358,170 v -46.667 c 10e-4,-3.681 -1.302,-6.823 -3.905,-9.427 z m -29.61,49.246 c -4.566,4.566 -10.061,6.85 -16.485,6.85 -6.424,0 -11.918,-2.284 -16.484,-6.85 -4.567,-4.566 -6.849,-10.061 -6.849,-16.484 0,-6.425 2.283,-11.918 6.849,-16.485 4.566,-4.566 10.06,-6.849 16.484,-6.849 6.424,0 11.919,2.284 16.485,6.849 4.566,4.566 6.849,10.06 6.849,16.485 0,6.423 -2.283,11.918 -6.849,16.484 z"
       id="path4" />
    <path
       style="fill:#808080"
       d="m 308,131.667 c -4.132,0 -7.665,1.467 -10.599,4.401 -2.934,2.935 -4.401,6.467 -4.401,10.6 0,4.132 1.467,7.665 4.401,10.599 2.934,2.933 6.467,4.4 10.599,4.4 4.132,0 7.665,-1.467 10.599,-4.4 2.935,-2.934 4.402,-6.467 4.402,-10.599 0,-4.133 -1.467,-7.665 -4.402,-10.6 -2.934,-2.934 -6.467,-4.401 -10.599,-4.401 z"
       id="path6" />
    <path
       style="fill:#808080"
       d="m 157.768,215.972 c 0.216,0 0.396,0.012 0.54,0.036 0.144,0.012 0.27,0.048 0.378,0.108 0.12,0.048 0.234,0.126 0.342,0.234 0.108,0.096 0.228,0.228 0.36,0.396 l 13.662,17.406 c -0.048,-0.42 -0.084,-0.828 -0.108,-1.224 -0.012,-0.408 -0.018,-0.786 -0.018,-1.134 v -15.822 h 4.266 V 242 h -2.502 c -0.384,0 -0.702,-0.06 -0.954,-0.18 -0.252,-0.12 -0.498,-0.336 -0.738,-0.648 l -13.608,-17.334 c 0.036,0.384 0.06,0.768 0.072,1.152 0.024,0.372 0.036,0.714 0.036,1.026 V 242 h -4.266 v -26.028 z m 32.305,7.272 c 1.38,0 2.628,0.222 3.744,0.666 1.128,0.444 2.088,1.074 2.88,1.89 0.792,0.816 1.404,1.812 1.836,2.988 0.432,1.176 0.648,2.49 0.648,3.942 0,1.464 -0.216,2.784 -0.648,3.96 -0.432,1.176 -1.044,2.178 -1.836,3.006 -0.792,0.828 -1.752,1.464 -2.88,1.908 -1.116,0.444 -2.364,0.666 -3.744,0.666 -1.38,0 -2.634,-0.222 -3.762,-0.666 -1.128,-0.444 -2.094,-1.08 -2.898,-1.908 -0.792,-0.828 -1.41,-1.83 -1.854,-3.006 -0.432,-1.176 -0.648,-2.496 -0.648,-3.96 0,-1.452 0.216,-2.766 0.648,-3.942 0.444,-1.176 1.062,-2.172 1.854,-2.988 0.804,-0.816 1.77,-1.446 2.898,-1.89 1.128,-0.444 2.382,-0.666 3.762,-0.666 z m 0,15.606 c 1.536,0 2.67,-0.516 3.402,-1.548 0.744,-1.032 1.116,-2.544 1.116,-4.536 0,-1.992 -0.372,-3.51 -1.116,-4.554 -0.732,-1.044 -1.866,-1.566 -3.402,-1.566 -1.56,0 -2.712,0.528 -3.456,1.584 -0.744,1.044 -1.116,2.556 -1.116,4.536 0,1.98 0.372,3.492 1.116,4.536 0.744,1.032 1.896,1.548 3.456,1.548 z m 25.243,3.15 h -4.86 v -26.028 h 4.86 z m 5.615,0 v -18.468 h 2.718 c 0.576,0 0.954,0.27 1.134,0.81 l 0.288,1.368 c 0.324,-0.36 0.66,-0.69 1.008,-0.99 0.36,-0.3 0.738,-0.558 1.134,-0.774 0.408,-0.216 0.84,-0.384 1.296,-0.504 0.468,-0.132 0.978,-0.198 1.53,-0.198 1.164,0 2.118,0.318 2.862,0.954 0.756,0.624 1.32,1.458 1.692,2.502 0.288,-0.612 0.648,-1.134 1.08,-1.566 0.432,-0.444 0.906,-0.804 1.422,-1.08 0.516,-0.276 1.062,-0.48 1.638,-0.612 0.588,-0.132 1.176,-0.198 1.764,-0.198 1.02,0 1.926,0.156 2.718,0.468 0.792,0.312 1.458,0.768 1.998,1.368 0.54,0.6 0.948,1.332 1.224,2.196 0.288,0.864 0.432,1.854 0.432,2.97 V 242 h -4.446 v -11.754 c 0,-1.176 -0.258,-2.058 -0.774,-2.646 -0.516,-0.6 -1.272,-0.9 -2.268,-0.9 -0.456,0 -0.882,0.078 -1.278,0.234 -0.384,0.156 -0.726,0.384 -1.026,0.684 -0.288,0.288 -0.516,0.654 -0.684,1.098 -0.168,0.444 -0.252,0.954 -0.252,1.53 V 242 h -4.464 v -11.754 c 0,-1.236 -0.252,-2.136 -0.756,-2.7 -0.492,-0.564 -1.224,-0.846 -2.196,-0.846 -0.636,0 -1.236,0.162 -1.8,0.486 -0.552,0.312 -1.068,0.744 -1.548,1.296 V 242 Z m 44.776,0 h -1.998 c -0.42,0 -0.75,-0.06 -0.99,-0.18 -0.24,-0.132 -0.42,-0.39 -0.54,-0.774 l -0.396,-1.314 c -0.468,0.42 -0.93,0.792 -1.386,1.116 -0.444,0.312 -0.906,0.576 -1.386,0.792 -0.48,0.216 -0.99,0.378 -1.53,0.486 -0.54,0.108 -1.14,0.162 -1.8,0.162 -0.78,0 -1.5,-0.102 -2.16,-0.306 -0.66,-0.216 -1.23,-0.534 -1.71,-0.954 -0.468,-0.42 -0.834,-0.942 -1.098,-1.566 -0.264,-0.624 -0.396,-1.35 -0.396,-2.178 0,-0.696 0.18,-1.38 0.54,-2.052 0.372,-0.684 0.984,-1.296 1.836,-1.836 0.852,-0.552 1.986,-1.008 3.402,-1.368 1.416,-0.36 3.174,-0.564 5.274,-0.612 v -1.08 c 0,-1.236 -0.264,-2.148 -0.792,-2.736 -0.516,-0.6 -1.272,-0.9 -2.268,-0.9 -0.72,0 -1.32,0.084 -1.8,0.252 -0.48,0.168 -0.9,0.36 -1.26,0.576 -0.348,0.204 -0.672,0.39 -0.972,0.558 -0.3,0.168 -0.63,0.252 -0.99,0.252 -0.3,0 -0.558,-0.078 -0.774,-0.234 -0.216,-0.156 -0.39,-0.348 -0.522,-0.576 l -0.81,-1.422 c 2.124,-1.944 4.686,-2.916 7.686,-2.916 1.08,0 2.04,0.18 2.88,0.54 0.852,0.348 1.572,0.84 2.16,1.476 0.588,0.624 1.032,1.374 1.332,2.25 0.312,0.876 0.468,1.836 0.468,2.88 z m -8.64,-2.772 c 0.456,0 0.876,-0.042 1.26,-0.126 0.384,-0.084 0.744,-0.21 1.08,-0.378 0.348,-0.168 0.678,-0.372 0.99,-0.612 0.324,-0.252 0.648,-0.546 0.972,-0.882 v -3.114 c -1.296,0.06 -2.382,0.174 -3.258,0.342 -0.864,0.156 -1.56,0.36 -2.088,0.612 -0.528,0.252 -0.906,0.546 -1.134,0.882 -0.216,0.336 -0.324,0.702 -0.324,1.098 0,0.78 0.228,1.338 0.684,1.674 0.468,0.336 1.074,0.504 1.818,0.504 z m 19.402,-16.02 c 0.792,0 1.536,0.084 2.232,0.252 0.696,0.156 1.332,0.39 1.908,0.702 h 5.31 v 1.656 c 0,0.276 -0.072,0.492 -0.216,0.648 -0.144,0.156 -0.39,0.264 -0.738,0.324 l -1.656,0.306 c 0.12,0.312 0.21,0.642 0.27,0.99 0.072,0.348 0.108,0.714 0.108,1.098 0,0.912 -0.186,1.74 -0.558,2.484 -0.36,0.732 -0.864,1.356 -1.512,1.872 -0.636,0.516 -1.398,0.918 -2.286,1.206 -0.876,0.276 -1.83,0.414 -2.862,0.414 -0.696,0 -1.374,-0.066 -2.034,-0.198 -0.576,0.348 -0.864,0.738 -0.864,1.17 0,0.372 0.168,0.648 0.504,0.828 0.348,0.168 0.798,0.288 1.35,0.36 0.564,0.072 1.2,0.12 1.908,0.144 0.708,0.012 1.434,0.048 2.178,0.108 0.744,0.06 1.47,0.168 2.178,0.324 0.708,0.144 1.338,0.378 1.89,0.702 0.564,0.324 1.014,0.768 1.35,1.332 0.348,0.552 0.522,1.266 0.522,2.142 0,0.816 -0.204,1.608 -0.612,2.376 -0.396,0.768 -0.978,1.452 -1.746,2.052 -0.756,0.6 -1.686,1.08 -2.79,1.44 -1.104,0.372 -2.364,0.558 -3.78,0.558 -1.404,0 -2.622,-0.138 -3.654,-0.414 -1.032,-0.264 -1.89,-0.624 -2.574,-1.08 -0.672,-0.444 -1.176,-0.96 -1.512,-1.548 -0.336,-0.588 -0.504,-1.2 -0.504,-1.836 0,-0.864 0.264,-1.59 0.792,-2.178 0.528,-0.588 1.26,-1.056 2.196,-1.404 -0.456,-0.252 -0.822,-0.588 -1.098,-1.008 -0.276,-0.42 -0.414,-0.966 -0.414,-1.638 0,-0.276 0.048,-0.558 0.144,-0.846 0.096,-0.3 0.24,-0.594 0.432,-0.882 0.204,-0.288 0.456,-0.558 0.756,-0.81 0.3,-0.264 0.654,-0.498 1.062,-0.702 -0.936,-0.504 -1.674,-1.176 -2.214,-2.016 -0.528,-0.84 -0.792,-1.824 -0.792,-2.952 0,-0.912 0.18,-1.734 0.54,-2.466 0.372,-0.744 0.882,-1.374 1.53,-1.89 0.66,-0.528 1.434,-0.93 2.322,-1.206 0.9,-0.276 1.878,-0.414 2.934,-0.414 z m 4.878,19.62 c 0,-0.36 -0.108,-0.654 -0.324,-0.882 -0.216,-0.228 -0.51,-0.402 -0.882,-0.522 -0.372,-0.132 -0.81,-0.228 -1.314,-0.288 -0.492,-0.06 -1.02,-0.102 -1.584,-0.126 -0.552,-0.036 -1.128,-0.066 -1.728,-0.09 -0.588,-0.036 -1.158,-0.09 -1.71,-0.162 -0.504,0.276 -0.912,0.606 -1.224,0.99 -0.3,0.372 -0.45,0.804 -0.45,1.296 0,0.324 0.078,0.624 0.234,0.9 0.168,0.288 0.426,0.534 0.774,0.738 0.36,0.204 0.822,0.36 1.386,0.468 0.564,0.12 1.254,0.18 2.07,0.18 0.828,0 1.542,-0.066 2.142,-0.198 0.6,-0.12 1.092,-0.294 1.476,-0.522 0.396,-0.216 0.684,-0.48 0.864,-0.792 0.18,-0.3 0.27,-0.63 0.27,-0.99 z m -4.878,-10.512 c 0.552,0 1.032,-0.072 1.44,-0.216 0.408,-0.156 0.744,-0.366 1.008,-0.63 0.276,-0.264 0.48,-0.582 0.612,-0.954 0.144,-0.372 0.216,-0.78 0.216,-1.224 0,-0.912 -0.276,-1.632 -0.828,-2.16 -0.54,-0.54 -1.356,-0.81 -2.448,-0.81 -1.092,0 -1.914,0.27 -2.466,0.81 -0.54,0.528 -0.81,1.248 -0.81,2.16 0,0.432 0.066,0.834 0.198,1.206 0.144,0.372 0.348,0.696 0.612,0.972 0.276,0.264 0.618,0.474 1.026,0.63 0.42,0.144 0.9,0.216 1.44,0.216 z m 19.875,-9.072 c 1.164,0 2.232,0.186 3.204,0.558 0.984,0.372 1.83,0.918 2.538,1.638 0.708,0.708 1.26,1.584 1.656,2.628 0.396,1.032 0.594,2.214 0.594,3.546 0,0.336 -0.018,0.618 -0.054,0.846 -0.024,0.216 -0.078,0.39 -0.162,0.522 -0.072,0.12 -0.174,0.21 -0.306,0.27 -0.132,0.048 -0.3,0.072 -0.504,0.072 h -11.412 c 0.132,1.896 0.642,3.288 1.53,4.176 0.888,0.888 2.064,1.332 3.528,1.332 0.72,0 1.338,-0.084 1.854,-0.252 0.528,-0.168 0.984,-0.354 1.368,-0.558 0.396,-0.204 0.738,-0.39 1.026,-0.558 0.3,-0.168 0.588,-0.252 0.864,-0.252 0.18,0 0.336,0.036 0.468,0.108 0.132,0.072 0.246,0.174 0.342,0.306 l 1.296,1.62 c -0.492,0.576 -1.044,1.062 -1.656,1.458 -0.612,0.384 -1.254,0.696 -1.926,0.936 -0.66,0.228 -1.338,0.39 -2.034,0.486 -0.684,0.096 -1.35,0.144 -1.998,0.144 -1.284,0 -2.478,-0.21 -3.582,-0.63 -1.104,-0.432 -2.064,-1.062 -2.88,-1.89 -0.816,-0.84 -1.458,-1.872 -1.926,-3.096 -0.468,-1.236 -0.702,-2.664 -0.702,-4.284 0,-1.26 0.204,-2.442 0.612,-3.546 0.408,-1.116 0.99,-2.082 1.746,-2.898 0.768,-0.828 1.698,-1.482 2.79,-1.962 1.104,-0.48 2.346,-0.72 3.726,-0.72 z m 0.09,3.186 c -1.296,0 -2.31,0.366 -3.042,1.098 -0.732,0.732 -1.2,1.77 -1.404,3.114 h 8.352 c 0,-0.576 -0.078,-1.116 -0.234,-1.62 -0.156,-0.516 -0.396,-0.966 -0.72,-1.35 -0.324,-0.384 -0.732,-0.684 -1.224,-0.9 -0.492,-0.228 -1.068,-0.342 -1.728,-0.342 z M 338.033,242 h -3.744 c -0.42,0 -0.768,-0.102 -1.044,-0.306 -0.264,-0.216 -0.456,-0.48 -0.576,-0.792 l -1.944,-5.31 h -10.782 l -1.944,5.31 c -0.096,0.276 -0.288,0.528 -0.576,0.756 -0.276,0.228 -0.618,0.342 -1.026,0.342 h -3.762 l 10.224,-26.028 h 4.95 z m -16.848,-9.828 h 8.298 l -3.168,-8.658 c -0.144,-0.384 -0.306,-0.834 -0.486,-1.35 -0.168,-0.528 -0.336,-1.098 -0.504,-1.71 -0.168,0.612 -0.336,1.182 -0.504,1.71 -0.156,0.528 -0.312,0.99 -0.468,1.386 z M 348.062,242 h -4.032 l -7.344,-18.468 h 3.69 c 0.324,0 0.594,0.078 0.81,0.234 0.228,0.156 0.384,0.354 0.468,0.594 l 3.564,9.864 c 0.204,0.576 0.372,1.14 0.504,1.692 0.144,0.552 0.27,1.104 0.378,1.656 0.108,-0.552 0.228,-1.104 0.36,-1.656 0.144,-0.552 0.324,-1.116 0.54,-1.692 l 3.654,-9.864 c 0.084,-0.24 0.234,-0.438 0.45,-0.594 0.216,-0.156 0.474,-0.234 0.774,-0.234 h 3.51 z m 24.415,0 h -1.998 c -0.42,0 -0.75,-0.06 -0.99,-0.18 -0.24,-0.132 -0.42,-0.39 -0.54,-0.774 l -0.396,-1.314 c -0.468,0.42 -0.93,0.792 -1.386,1.116 -0.444,0.312 -0.906,0.576 -1.386,0.792 -0.48,0.216 -0.99,0.378 -1.53,0.486 -0.54,0.108 -1.14,0.162 -1.8,0.162 -0.78,0 -1.5,-0.102 -2.16,-0.306 -0.66,-0.216 -1.23,-0.534 -1.71,-0.954 -0.468,-0.42 -0.834,-0.942 -1.098,-1.566 -0.264,-0.624 -0.396,-1.35 -0.396,-2.178 0,-0.696 0.18,-1.38 0.54,-2.052 0.372,-0.684 0.984,-1.296 1.836,-1.836 0.852,-0.552 1.986,-1.008 3.402,-1.368 1.416,-0.36 3.174,-0.564 5.274,-0.612 v -1.08 c 0,-1.236 -0.264,-2.148 -0.792,-2.736 -0.516,-0.6 -1.272,-0.9 -2.268,-0.9 -0.72,0 -1.32,0.084 -1.8,0.252 -0.48,0.168 -0.9,0.36 -1.26,0.576 -0.348,0.204 -0.672,0.39 -0.972,0.558 -0.3,0.168 -0.63,0.252 -0.99,0.252 -0.3,0 -0.558,-0.078 -0.774,-0.234 -0.216,-0.156 -0.39,-0.348 -0.522,-0.576 l -0.81,-1.422 c 2.124,-1.944 4.686,-2.916 7.686,-2.916 1.08,0 2.04,0.18 2.88,0.54 0.852,0.348 1.572,0.84 2.16,1.476 0.588,0.624 1.032,1.374 1.332,2.25 0.312,0.876 0.468,1.836 0.468,2.88 z m -8.64,-2.772 c 0.456,0 0.876,-0.042 1.26,-0.126 0.384,-0.084 0.744,-0.21 1.08,-0.378 0.348,-0.168 0.678,-0.372 0.99,-0.612 0.324,-0.252 0.648,-0.546 0.972,-0.882 v -3.114 c -1.296,0.06 -2.382,0.174 -3.258,0.342 -0.864,0.156 -1.56,0.36 -2.088,0.612 -0.528,0.252 -0.906,0.546 -1.134,0.882 -0.216,0.336 -0.324,0.702 -0.324,1.098 0,0.78 0.228,1.338 0.684,1.674 0.468,0.336 1.074,0.504 1.818,0.504 z m 17.746,-15.696 V 242 h -4.446 v -18.468 z m 0.666,-5.382 c 0,0.384 -0.078,0.744 -0.234,1.08 -0.156,0.336 -0.366,0.63 -0.63,0.882 -0.252,0.252 -0.552,0.456 -0.9,0.612 -0.348,0.144 -0.72,0.216 -1.116,0.216 -0.384,0 -0.75,-0.072 -1.098,-0.216 -0.336,-0.156 -0.63,-0.36 -0.882,-0.612 -0.252,-0.252 -0.456,-0.546 -0.612,-0.882 -0.144,-0.336 -0.216,-0.696 -0.216,-1.08 0,-0.396 0.072,-0.768 0.216,-1.116 0.156,-0.348 0.36,-0.648 0.612,-0.9 0.252,-0.252 0.546,-0.45 0.882,-0.594 0.348,-0.156 0.714,-0.234 1.098,-0.234 0.396,0 0.768,0.078 1.116,0.234 0.348,0.144 0.648,0.342 0.9,0.594 0.264,0.252 0.474,0.552 0.63,0.9 0.156,0.348 0.234,0.72 0.234,1.116 z m 9.107,-2.898 V 242 H 386.91 V 215.252 Z M 410.868,242 h -1.998 c -0.42,0 -0.75,-0.06 -0.99,-0.18 -0.24,-0.132 -0.42,-0.39 -0.54,-0.774 l -0.396,-1.314 c -0.468,0.42 -0.93,0.792 -1.386,1.116 -0.444,0.312 -0.906,0.576 -1.386,0.792 -0.48,0.216 -0.99,0.378 -1.53,0.486 -0.54,0.108 -1.14,0.162 -1.8,0.162 -0.78,0 -1.5,-0.102 -2.16,-0.306 -0.66,-0.216 -1.23,-0.534 -1.71,-0.954 -0.468,-0.42 -0.834,-0.942 -1.098,-1.566 -0.264,-0.624 -0.396,-1.35 -0.396,-2.178 0,-0.696 0.18,-1.38 0.54,-2.052 0.372,-0.684 0.984,-1.296 1.836,-1.836 0.852,-0.552 1.986,-1.008 3.402,-1.368 1.416,-0.36 3.174,-0.564 5.274,-0.612 v -1.08 c 0,-1.236 -0.264,-2.148 -0.792,-2.736 -0.516,-0.6 -1.272,-0.9 -2.268,-0.9 -0.72,0 -1.32,0.084 -1.8,0.252 -0.48,0.168 -0.9,0.36 -1.26,0.576 -0.348,0.204 -0.672,0.39 -0.972,0.558 -0.3,0.168 -0.63,0.252 -0.99,0.252 -0.3,0 -0.558,-0.078 -0.774,-0.234 -0.216,-0.156 -0.39,-0.348 -0.522,-0.576 l -0.81,-1.422 c 2.124,-1.944 4.686,-2.916 7.686,-2.916 1.08,0 2.04,0.18 2.88,0.54 0.852,0.348 1.572,0.84 2.16,1.476 0.588,0.624 1.032,1.374 1.332,2.25 0.312,0.876 0.468,1.836 0.468,2.88 z m -8.64,-2.772 c 0.456,0 0.876,-0.042 1.26,-0.126 0.384,-0.084 0.744,-0.21 1.08,-0.378 0.348,-0.168 0.678,-0.372 0.99,-0.612 0.324,-0.252 0.648,-0.546 0.972,-0.882 v -3.114 c -1.296,0.06 -2.382,0.174 -3.258,0.342 -0.864,0.156 -1.56,0.36 -2.088,0.612 -0.528,0.252 -0.906,0.546 -1.134,0.882 -0.216,0.336 -0.324,0.702 -0.324,1.098 0,0.78 0.228,1.338 0.684,1.674 0.468,0.336 1.074,0.504 1.818,0.504 z M 415.293,242 v -26.748 h 4.446 V 225.8 c 0.732,-0.78 1.56,-1.398 2.484,-1.854 0.924,-0.468 2.004,-0.702 3.24,-0.702 1.008,0 1.926,0.21 2.754,0.63 0.84,0.408 1.56,1.008 2.16,1.8 0.612,0.792 1.08,1.77 1.404,2.934 0.336,1.164 0.504,2.502 0.504,4.014 0,1.38 -0.186,2.658 -0.558,3.834 -0.372,1.176 -0.906,2.196 -1.602,3.06 -0.684,0.864 -1.518,1.542 -2.502,2.034 -0.972,0.48 -2.064,0.72 -3.276,0.72 -0.564,0 -1.08,-0.06 -1.548,-0.18 -0.468,-0.108 -0.894,-0.264 -1.278,-0.468 -0.384,-0.204 -0.744,-0.45 -1.08,-0.738 -0.324,-0.3 -0.636,-0.63 -0.936,-0.99 l -0.198,1.242 c -0.072,0.312 -0.198,0.534 -0.378,0.666 -0.168,0.132 -0.402,0.198 -0.702,0.198 z m 8.64,-15.3 c -0.924,0 -1.716,0.198 -2.376,0.594 -0.648,0.384 -1.254,0.93 -1.818,1.638 v 8.28 c 0.504,0.624 1.05,1.062 1.638,1.314 0.6,0.24 1.248,0.36 1.944,0.36 0.672,0 1.278,-0.126 1.818,-0.378 0.54,-0.252 0.996,-0.636 1.368,-1.152 0.384,-0.516 0.678,-1.164 0.882,-1.944 0.204,-0.792 0.306,-1.722 0.306,-2.79 0,-1.08 -0.09,-1.992 -0.27,-2.736 -0.168,-0.756 -0.414,-1.368 -0.738,-1.836 -0.324,-0.468 -0.72,-0.81 -1.188,-1.026 -0.456,-0.216 -0.978,-0.324 -1.566,-0.324 z m 16.572,-11.448 V 242 h -4.446 v -26.748 z m 12.671,7.992 c 1.164,0 2.232,0.186 3.204,0.558 0.984,0.372 1.83,0.918 2.538,1.638 0.708,0.708 1.26,1.584 1.656,2.628 0.396,1.032 0.594,2.214 0.594,3.546 0,0.336 -0.018,0.618 -0.054,0.846 -0.024,0.216 -0.078,0.39 -0.162,0.522 -0.072,0.12 -0.174,0.21 -0.306,0.27 -0.132,0.048 -0.3,0.072 -0.504,0.072 H 448.73 c 0.132,1.896 0.642,3.288 1.53,4.176 0.888,0.888 2.064,1.332 3.528,1.332 0.72,0 1.338,-0.084 1.854,-0.252 0.528,-0.168 0.984,-0.354 1.368,-0.558 0.396,-0.204 0.738,-0.39 1.026,-0.558 0.3,-0.168 0.588,-0.252 0.864,-0.252 0.18,0 0.336,0.036 0.468,0.108 0.132,0.072 0.246,0.174 0.342,0.306 l 1.296,1.62 c -0.492,0.576 -1.044,1.062 -1.656,1.458 -0.612,0.384 -1.254,0.696 -1.926,0.936 -0.66,0.228 -1.338,0.39 -2.034,0.486 -0.684,0.096 -1.35,0.144 -1.998,0.144 -1.284,0 -2.478,-0.21 -3.582,-0.63 -1.104,-0.432 -2.064,-1.062 -2.88,-1.89 -0.816,-0.84 -1.458,-1.872 -1.926,-3.096 -0.468,-1.236 -0.702,-2.664 -0.702,-4.284 0,-1.26 0.204,-2.442 0.612,-3.546 0.408,-1.116 0.99,-2.082 1.746,-2.898 0.768,-0.828 1.698,-1.482 2.79,-1.962 1.104,-0.48 2.346,-0.72 3.726,-0.72 z m 0.09,3.186 c -1.296,0 -2.31,0.366 -3.042,1.098 -0.732,0.732 -1.2,1.77 -1.404,3.114 h 8.352 c 0,-0.576 -0.078,-1.116 -0.234,-1.62 -0.156,-0.516 -0.396,-0.966 -0.72,-1.35 -0.324,-0.384 -0.732,-0.684 -1.224,-0.9 -0.492,-0.228 -1.068,-0.342 -1.728,-0.342 z"
       id="path8" />
  </g>
</svg>
